<svg xmlns="http://www.w3.org/2000/svg" viewBox="0 0 15.35 16">
  <path d="M9.29 6.48c.1.21.31.14.49.17.07 0 .14.03.28.03.1 0 .17-.03.28-.03.42 0 .87-.03 1.29-.03s.8-.03 1.22-.03c.31 0 .66.03.98.03.21 0 .28 0 .45.03 0 0 0 .03.03.03h.03l.07.07h.14l.07.07h.07s.1.14.17.14c.03 0 .31.38.38.45.03.03.07.1.07.17v.07c.03.17 0 .42-.07.63-.07.14-.21.28-.35.42l-.07.07h-.07s-.03.03-.07.03c-.07 0-.1.07-.24.07-.03 0-.17-.03-.21 0-.07.1-.52 0-.8 0-.38 0-.8.03-1.26.03-.31 0-.66.03-.98.03-.24 0-.42 0-.63.07 0 0 0 .03-.03.03s-.03.03-.07.03h-.14l-.03.03c-.21.03-.42 0-.63.03l-.03.03c-.1.03-.35.03-.45.14-.07.45-.03.91-.07 1.4 0 .1-.03.21-.03.35v.35c-.03.21-.07.42-.07.63s.07.45.07.7c.03.56-.03 1.08.03 1.54 0 .03.03.07.03.14v.07c.03.07.07.49.03.66 0 0-.03 0-.03.03 0 .07-.03.14-.07.21-.1.21-.31.38-.49.56-.17.03-.31-.03-.49-.03s-.31.07-.45.03c-.17-.03-.28-.17-.42-.24s-.35-.07-.45-.17c0-.07-.07-.1-.14-.17-.03-.03 0-.1-.03-.14l-.07-.03c-.07-.14-.07-.35-.14-.56-.07-.31-.21-.63-.14-1.08 0-.03.03-.07.03-.14 0-.21-.03-.38-.03-.66s.07-.52.03-.8c0-.21-.07-.38-.14-.59.14-.59.21-1.43.14-2.1-.14-.1-.31-.1-.49-.14-.59-.03-1.19.1-1.85.03-.24-.03-.49-.1-.77-.14-.38-.03-.94.1-1.22-.07-.07-.03-.28-.07-.42-.14-.1-.03-.21-.03-.28-.07-.07-.03-.28-.07-.42-.14-.03 0 0-.03-.03-.03-.07 0-.07-.07-.07-.07H.66s-.07-.17-.17-.17c-.07 0-.07-.07-.07-.07H.35L.21 8.1c-.03-.03 0-.1-.03-.17 0-.03-.07-.03-.07-.03v-.07s-.14-.28-.07-.49c0-.03.03-.03.03-.03.03-.1.03-.24.07-.35 0-.03.07-.03.07-.03v-.07l.07-.03v-.07s.1-.03.14-.07c.03-.03.03-.1.07-.14.03-.03.1 0 .14 0 0 0 0-.03.03-.03.1-.03.17-.03.35-.07.03 0 .03-.03.03-.03.1-.03.21 0 .35 0 .03 0 .07-.03.14-.03.17-.03.38.03.59.03h.21c.07 0 .1.03.17.03.17 0 .31-.03.49-.03h.49c.24 0 .45.07.66.07.17 0 .38-.03.59 0 .03 0 .07.03.14.03h.77c.24 0 .45.07.66 0 .14-.07.14-.28.17-.45.07-.35.03-.73.07-1.12.03-.17.07-.31.07-.49.07-.98-.03-2.03.07-2.94.03-.14.03-.28.03-.38l.03-.03c.03-.07 0-.1.03-.17 0-.03.07-.07.07-.07.03-.03 0-.07.03-.14 0-.03.07-.07.07-.07.03-.03 0-.07.03-.14l.07-.07c.03-.07.07-.17.14-.21h.07V.21h.07c.07-.07.21-.1.38-.14.07-.03.07 0 .14-.03.03-.03.45 0 .56.03 0 0 0 .03.03.03.07 0 .1.07.17.07s.17.1.24.17c.03.03.07.1.14.14h.07s.03.1.14.14c.03 0 .07.03.07.07.07.07.07.21.14.35v.07s.03.1.07.24c.03.07.07.14.07.21.03.35-.03.87-.03 1.22v.38c-.03.21-.1.45-.14.66-.03.31.03.59 0 .87s-.1.59-.14.87c-.03.17-.03.31-.03.45 0 .07-.03.1-.03.21.03.17.07.17.07.24Z" fill-rule="evenodd"/>
</svg>