<svg xmlns="http://www.w3.org/2000/svg" viewBox="0 0 154.97 51.54"><path d="M98.04 18.58c-.1.7.13 1.07.6 1.2-.3 3.3-2.31 4.88-3 7.79-2.78-1.09.37-3.66 0-5.99-6.02 4.36-.76 8.9-2.4 14.98-2.37-.69-4.58.9-5.39 0-1.65-1.29-3.26-7.15.6-7.19.14 2.94-1.2 4.26 1.2 5.39 2.48-.75 3.61-5.55 0-5.99 1.01-5.18 2.41-9.98 8.39-10.19M44.71 35.96c2.74-3.89 5.75-6.61 3.6-11.99h-1.8c-1.12 3.18-2.06 8.41-1.8 11.99m-.6-14.98c2.2.79 4.61 1.38 6.59 2.4 2.34 9.49-5.51 13.01-7.79 19.78-2.19-1.35.19-4.05-3.6-4.19 4.65-2.48 2.41-8.23 4.19-13.18-.75-1.05-2.46 1.53-4.19 0 .62-2.58 4.8-1.59 4.79-4.79M84.26 23.97c1.07-.08 1.26.73 2.4.6-2.27 4.7-2.83 9.92-3.6 13.18-1.41-.18-1.11-2.08-3-1.8 2.09-4.55 2.59-7.76 4.19-11.99" fill-rule="evenodd"/><path d="M32.72 33.56c.1-.7.95-.65 1.8-.6.37-1.37.38-4.36-.6-5.99.38 2.6-2.93 4.63-1.2 6.59m-8.99 2.4c8.46-.68 6.25-12.81 11.99-16.18 2.66 3.14 1.58 5.89 1.2 10.79 1.18 2.47 2.73 1.5 4.79 1.2-.65 1.75-2.45 2.35-4.19 3-1.15 3.05 1.52 7.74-.6 9.59-3.53-1.76-1.59-6.77-2.4-8.99-6.48.63-4.1 6.74-8.99 8.39-.31-2.5.33-4.06 1.2-5.39-5.06-1.18-3.09 9.63-5.39 13.18-.61-.39-.62-1.38-1.8-1.2.62-4.59.56-4.38 1.2-8.39-.38-.5-3.03-2.1-2.4 0-2.01-2.24 3.05-2.52 3.6-4.19-.31-6.54.78-12.65 1.8-20.37-4.18 9.08-7.12 19.85-11.39 25.77-3.02-4.36 2.2-16.61 1.8-24.57-2.38 7.49-6.56 13.25-7.19 19.77-2.5.89-2.73 5.52-5.39 9.59-3.81-1.55.62-3.16 0-6.59 6.33-9.02 6.94-20.68 14.38-29.96.53 5.8.36 14.18-1.2 20.37C20 21.53 22.29 11.84 26.13 0c2.09 10.18-.44 23.37-2.4 35.95M109.43 7.79c-.05 2.35-1.06 3.74-1.8 5.39 2.27.98 6.85-2.15 9.59-.6-2.28 2.71-7.18 2.81-10.79 4.19-4.09 9.05-3.64 13.68-8.99 22.77-1.46-5.87 4.3-14.31 5.99-20.97-1.87-.66-4.77-1.97-4.79-.6-1.58-2.44 3.47-1.26 5.39-3 2.84-2.3 1.69-6.99 5.39-7.19M72.27 46.14c-.39-.61-1.38-.62-1.2-1.8 5.33-9.51 4.47-15.81 8.39-23.97-3.9 2.13-3.25 7.16-6.59 10.79-3.98-.13-3.45-7.57-3-10.19-.53.37-1.07.72-1.2 0-.88 4.42-1.31 12.62-5.99 16.18.18-4.92 3.4-16.35 6.59-22.17 3.52 1.57 2.64 8.33 3.59 10.79 3.51-5.04 4.17-11.47 9.59-15.58-.7 10.22-5.12 28.64-11.39 40.15-.95-.7-.35-3.11 1.2-4.19" fill-rule="evenodd"/><path d="M132.2 26.37c2.48-.14 5.72-2.64 4.19-4.79-1.59 1.4-3.45 2.54-4.19 4.79m-23.37 3.6c1.78-1.63 2.95-1.13 4.79-1.8-.09-3.18.15-6.13-.6-7.19-1.18 2.83-4.2 6.97-4.19 8.99m5.99 8.99c-1.92-2.64-.27-4.15-1.2-7.79-6.53-1.43-6.54 4.33-10.19 7.19-2.21-3.18 3.46-5.75-.6-7.79 7.31-1.09 6.1-12.49 11.98-13.18.69 2.58 1.09 7.82.6 10.79 7.96.65 4.9-7.66 7.79-10.19 1.64 2.86.76 3.95 0 7.19 3.73-1.46 5.22-5.17 7.79-7.79-.19-.31-2.08-1.16-1.8.6-3.27-2.2 3.91-4.39 4.2-.6-2.32 3.67-5.11 6.87-7.79 10.19.09 1.34 1.51-.78 3 0 2.5-4.41 6.04-8.6 10.19-8.39 1.38.61 1.24 2.75 1.2 4.79-2.76 2.23-5.41 4.57-8.99 5.99.47.53.64 1.35.6 2.4 1.82-1.31 3.06.26 3-2.4 3.36-.43 5.73 2.6 7.79 3 2.47-2.37-.04-3.46-1.8-4.19.75-5.04 5.99-5.6 8.39-8.99.65 1.72 1.63 2.18 3.6 1.2-1.28 3.52-6.83 2.76-8.39 5.99 2.09 1.4 1.56 1.92 1.8 5.39-1.19 1.2-3.06 1.73-4.19 3-2.93-.51-5.44-1.13-4.19-3-2.69-.29-2.68 2.12-4.79 2.4-4.83-1.05-4.6-6.91-9.59-4.79 1.65 2.75 4.86 3.93 5.39 7.79-3.03-1.17-4.56-3.83-6.59-5.99-1.71 1.91-1.68 5.88-2.4 7.19-.86.32-1.46-2.33-1.8-.6-.81-1.44 1.4-4.97 1.8-7.19-.95-2.19-2.14.04-3.6-1.2-.05 2.62-.48 7.45 0 8.39-.21.94-1.05-.52-1.2.6M88.45 16.18c1.67.56-2.58 3.32-.6 4.19-.3 1.02-3.13-.41-2.4-2.4 1.53-.07 2.1-1.1 3-1.8M54.9 27.57c2.56-.45 5.23-3.94 4.19-5.99-1.75 1.65-3.73 3.07-4.19 5.99m1.8 9.59c2.47-1.97-.04-1.69-1.2 0-5.95-4.5-3.15-13.69 2.4-17.38h4.19c1.44 5.84-4.72 9.31-7.79 10.79.53 2.12.07 1.47.6 3.6 1.12.57 2-1.79 2.4 0 1.7-2.74 2.87-3.09 4.79-4.79-.09 2.39-1.42 6.51-5.39 7.79M153.77 22.77c.11-.51-.23-.57-.6-.6.1-.7 1.09-.51 1.8-.6-.21.79-1.06.94-1.2 1.8-.68-.11-.33-.6 0-.6" fill-rule="evenodd"/></svg>