<?xml version="1.0" standalone="no"?>
<!DOCTYPE svg PUBLIC "-//W3C//DTD SVG 20010904//EN"
 "http://www.w3.org/TR/2001/REC-SVG-20010904/DTD/svg10.dtd">
<svg version="1.0" xmlns="http://www.w3.org/2000/svg"
 width="700.000000pt" height="700.000000pt" viewBox="0 0 700.000000 700.000000"
 preserveAspectRatio="xMidYMid meet">
<metadata>
Created by potrace 1.14, written by Peter Selinger 2001-2017
</metadata>
<g transform="translate(0.000000,700.000000) scale(0.100000,-0.100000)"
fill="#000000" stroke="none">
<path d="M0 3500 l0 -3500 3500 0 3500 0 0 3500 0 3500 -3500 0 -3500 0 0
-3500z m2268 1733 l2 -243 240 0 c132 0 241 1 241 3 1 1 4 110 8 242 l6 240
604 3 c415 1 608 -1 615 -8 7 -7 12 -98 14 -245 l4 -235 119 0 119 0 2 243 3
242 618 3 617 2 0 -614 0 -613 -31 -7 c-17 -3 -71 -6 -120 -6 l-89 0 0 -244 0
-244 120 -7 120 -7 0 -489 0 -489 -369 0 -369 0 -6 31 c-3 17 -6 237 -6 489 0
408 -2 459 -16 464 -9 3 -116 6 -239 6 l-223 0 -6 31 c-3 17 -6 128 -6 245 l0
214 -370 0 -370 0 0 -244 0 -244 244 -7 244 -7 7 -369 c4 -202 4 -423 0 -489
l-7 -120 -363 0 -363 0 -6 23 c-3 12 -6 232 -6 488 l0 467 -245 7 -245 7 0
222 c0 121 -3 231 -6 244 l-6 22 -362 -2 -361 -3 -3 -234 c-1 -129 1 -238 6
-243 5 -5 115 -12 245 -15 l237 -6 0 -489 0 -488 -492 2 -493 3 -3 1345 c-1
740 0 1351 3 1358 3 10 83 12 372 10 l368 -3 3 -242z m-254 -2960 c4 -131 10
-241 14 -245 4 -4 57 -10 119 -14 l112 -7 6 -71 c3 -39 5 -147 3 -241 l-3
-170 -372 -3 -373 -2 0 488 c0 269 3 492 7 495 3 4 113 7 243 7 l237 0 7 -237z
m1486 -7 l0 -243 240 -5 c132 -2 243 -8 247 -12 10 -10 10 -445 1 -468 -7 -17
-40 -18 -491 -18 l-484 0 -7 46 c-3 26 -6 136 -6 244 l0 197 -61 7 c-34 3 -88
6 -120 6 l-59 0 0 238 c0 131 3 242 7 245 3 4 170 7 370 7 l363 0 0 -244z
m1480 76 c0 -93 3 -203 6 -245 l7 -77 241 -2 241 -3 3 -248 2 -247 -372 2
-373 3 -3 241 -2 241 -128 6 c-70 4 -177 7 -238 7 l-111 0 -7 53 c-8 67 -8
400 0 421 5 14 47 16 370 16 l364 0 0 -168z"/>
</g>
</svg>
